<svg width="120" height="125" viewBox="0 0 120 125" fill="none" xmlns="http://www.w3.org/2000/svg">
<path d="M107.189 124.997H76.0322C74.2849 124.553 72.5516 124.061 71.0024 122.899C66.1381 119.253 63.8993 113.876 63.9063 106.937C63.9272 87.2401 63.9063 67.5463 63.9179 47.8496C63.9226 41.5225 64.6518 35.347 66.6343 29.4492C69.6326 20.5265 74.3595 13.3867 81.0013 8.15564C88.4819 2.26637 96.7405 0.486429 105.449 1.03587C108.016 1.19612 109.954 3.61135 110.02 6.7935C110.096 10.5508 110.09 14.311 110.024 18.0684C109.971 21.1733 108.2 23.4054 105.698 23.7774C103.767 24.0635 101.829 23.8804 99.8926 23.9519C94.2338 24.158 89.8191 27.2772 86.3339 32.5855C83.303 37.2014 82.4294 42.5755 82.5762 48.3761C82.716 53.9334 85.3205 57.2272 89.8564 57.2386C95.1261 57.2529 100.396 57.1785 105.663 57.2672C113.148 57.396 119.112 64.8392 119.131 74.025C119.154 85.5375 119.136 97.0499 119.136 108.565C119.136 111.541 118.497 114.303 117.223 116.827C114.898 121.423 111.508 124.075 107.191 125L107.189 124.997Z" fill="url(#paint0_linear_40000042_4543)" fill-opacity="0.2"/>
<path d="M43.0149 124.997H11.858C10.5417 124.613 9.21149 124.299 7.9791 123.569C3.6366 120.99 1.02272 116.764 0 111.009V41.3451C0.440306 38.8383 0.69191 36.2857 1.30228 33.8218C3.93946 23.1937 8.88533 14.6545 16.4637 8.49337C24.0491 2.32652 32.4941 0.449274 41.4121 1.03877C43.9701 1.20761 45.8548 3.71441 45.8804 6.8794C45.9107 10.591 45.9083 14.3025 45.8804 18.0112C45.8571 21.1132 44.1331 23.3968 41.6241 23.7688C39.6159 24.0665 37.5984 23.8661 35.5856 23.9577C31.4225 24.1466 27.8185 25.9923 24.7107 29.3347C20.0351 34.3684 18.2156 40.8014 18.4206 48.3246C18.5697 53.8333 21.2209 57.2244 25.7078 57.2358C30.7446 57.2501 35.7813 57.2501 40.818 57.2358C42.0248 57.233 43.2176 57.3589 44.3894 57.6908C50.803 59.5051 55.0662 66.2243 55.1128 74.8292C55.1711 85.7235 55.1455 96.6178 55.1175 107.512C55.1058 111.458 54.3091 115.127 52.2916 118.309C49.9154 122.052 46.8169 124.256 43.0126 124.997H43.0149Z" fill="url(#paint1_linear_40000042_4543)" fill-opacity="0.2"/>
<defs>
<linearGradient id="paint0_linear_40000042_4543" x1="91.5244" y1="0.941406" x2="91.5244" y2="125" gradientUnits="userSpaceOnUse">
<stop stop-color="#4AB371"/>
<stop offset="0.735" stop-color="#F1FFF6"/>
</linearGradient>
<linearGradient id="paint1_linear_40000042_4543" x1="27.574" y1="0.936035" x2="27.574" y2="124.997" gradientUnits="userSpaceOnUse">
<stop stop-color="#4AB371"/>
<stop offset="0.735" stop-color="#F1FFF6"/>
</linearGradient>
</defs>
</svg>
