<svg width="34" height="31" viewBox="0 0 34 31" fill="none" xmlns="http://www.w3.org/2000/svg">
<path d="M33.4569 26.8644C33.4522 26.7703 33.4249 26.6727 33.3584 26.5829L29.4523 21.3121V7.56626C29.4523 6.30514 28.4263 5.27908 27.1646 5.27908H26.1537V2.40866C26.1537 1.46661 25.3872 0.700195 24.4452 0.700195H18.0179C16.2475 0.700195 14.8073 2.14043 14.8073 3.91081V5.27908H6.77631C5.51519 5.27908 4.48912 6.30514 4.48912 7.56626V21.3121L0.583036 26.5829C0.503592 26.6903 0.467575 26.877 0.478464 27.1096C0.52653 28.1319 1.48089 30.0435 3.63966 30.0435H30.3059C32.1389 30.0436 33.5307 28.4709 33.4569 26.8644ZM2.02172 26.3725L5.2641 21.9979H28.6774L31.9198 26.3725H2.02172ZM8.16197 20.9673C8.41512 19.0608 10.0455 17.5835 12.0174 17.5835C13.9921 17.5835 15.6248 19.0607 15.8783 20.9673H8.16197ZM15.8379 3.91075C15.8379 2.70852 16.8157 1.73077 18.0179 1.73077H24.4452C24.8191 1.73077 25.1231 2.0347 25.1231 2.40866V5.35762C25.1231 6.55984 24.1453 7.53759 22.9431 7.53759H17.3849C17.2007 7.53759 17.0302 7.63623 16.938 7.79628L15.838 9.70905V3.91075H15.8379ZM5.5197 7.56626C5.5197 6.8733 6.08335 6.30972 6.77624 6.30972H14.8073V9.91034C14.8073 10.9099 16.1328 11.2638 16.631 10.3974L17.6828 8.56817H22.9431C24.3821 8.56817 25.6029 7.61658 26.0095 6.30965H27.1647C27.8577 6.30965 28.4218 6.8733 28.4218 7.5662V20.9672H16.9197C16.6612 18.4902 14.5618 16.5529 12.0174 16.5529C9.4763 16.5529 7.37881 18.4902 7.12063 20.9672H5.5197V7.56626ZM30.3059 29.0129H3.63966C2.646 29.0129 1.80981 28.3275 1.57863 27.4051H32.3669C32.1357 28.3275 31.2995 29.0129 30.3059 29.0129Z" fill="#4AB371"/>
<path d="M22.7518 23.6707H11.1876C10.9028 23.6707 10.6723 23.9011 10.6723 24.186C10.6723 24.4708 10.9028 24.7013 11.1876 24.7013H22.7519C23.0368 24.7013 23.2672 24.4708 23.2672 24.186C23.2672 23.9011 23.0367 23.6707 22.7518 23.6707ZM12.0189 15.4564C13.2226 15.4564 14.2019 14.4771 14.2019 13.2734V12.0204C14.2019 10.8167 13.2226 9.83738 12.0189 9.83738C10.8152 9.83738 9.83594 10.8167 9.83594 12.0204V13.2734C9.83594 14.4771 10.8152 15.4564 12.0189 15.4564ZM10.8666 12.0204C10.8666 11.3848 11.3834 10.868 12.019 10.868C12.6546 10.868 13.1714 11.3848 13.1714 12.0204V13.2734C13.1714 13.909 12.6546 14.4259 12.019 14.4259C11.3835 14.4259 10.8666 13.9091 10.8666 13.2734V12.0204ZM17.9269 4.09803H23.0317C23.3165 4.09803 23.547 3.86756 23.547 3.5827C23.547 3.29785 23.3165 3.06738 23.0317 3.06738H17.9269C17.6421 3.06738 17.4116 3.29785 17.4116 3.5827C17.4116 3.86756 17.6421 4.09803 17.9269 4.09803ZM17.9269 6.201H21.7122C21.997 6.201 22.2275 5.97053 22.2275 5.68568C22.2275 5.40083 21.997 5.17036 21.7122 5.17036H17.9269C17.6421 5.17036 17.4116 5.40083 17.4116 5.68568C17.4116 5.97053 17.6421 6.201 17.9269 6.201Z" fill="#4AB371"/>
</svg>
