<svg width="156" height="131" viewBox="0 0 156 131" fill="none" xmlns="http://www.w3.org/2000/svg">
<g opacity="0.08">
<mask id="path-1-inside-1_40000093_32308" fill="white">
<path fill-rule="evenodd" clip-rule="evenodd" d="M124.249 45.5792L63.5803 3.22999C55.3539 -2.51236 44.2135 -0.393716 38.6969 7.96229C33.1807 16.3182 35.3779 27.7472 43.6043 33.4895L66.4953 49.4684C62.6657 52.6214 59.2299 56.4101 56.3411 60.8053L13.7946 125.539L13.6965 125.689L3.02537 141.925C-2.47788 150.298 -0.264426 161.744 7.96902 167.489C16.2026 173.236 27.3382 171.106 32.8415 162.733L62.2844 117.936L62.3827 117.786L86.1568 81.6135C90.4862 75.0265 98.9811 73.0572 105.708 76.8403L117.169 84.8406C117.624 85.1585 118.089 85.4523 118.56 85.7223L151.02 108.376C159.254 114.122 170.389 111.992 175.893 103.619C181.396 95.2461 179.183 83.8002 170.949 78.054L126.899 47.3117C126.026 46.7032 125.143 46.1257 124.249 45.5792Z"/>
</mask>
<path d="M63.5803 3.22999L65.8698 -0.0499633V-0.0499658L63.5803 3.22999ZM124.249 45.5792L121.96 48.8591L122.059 48.9285L122.162 48.9917L124.249 45.5792ZM38.6969 7.96229L35.3588 5.75846L35.3587 5.75855L38.6969 7.96229ZM43.6043 33.4895L45.8938 30.2095L45.8938 30.2095L43.6043 33.4895ZM66.4953 49.4684L69.0378 52.5564L73.1074 49.2058L68.7849 46.1884L66.4953 49.4684ZM56.3411 60.8053L52.9985 58.6083L52.9985 58.6083L56.3411 60.8053ZM13.7946 125.539L10.4519 123.342H10.4519L13.7946 125.539ZM13.6965 125.689L10.3538 123.492L10.3538 123.492L13.6965 125.689ZM3.02537 141.925L6.36798 144.122L6.36804 144.122L3.02537 141.925ZM7.96902 167.489L10.2583 164.209L10.2582 164.209L7.96902 167.489ZM32.8415 162.733L36.1841 164.93L36.1841 164.93L32.8415 162.733ZM62.2844 117.936L65.6271 120.133L65.6307 120.127L62.2844 117.936ZM62.3827 117.786L59.04 115.589L59.0363 115.594L62.3827 117.786ZM86.1568 81.6135L89.4995 83.8105L89.4995 83.8105L86.1568 81.6135ZM105.708 76.8403L107.997 73.5603L107.838 73.4491L107.668 73.3538L105.708 76.8403ZM117.169 84.8406L114.879 88.1205L114.879 88.1206L117.169 84.8406ZM118.56 85.7223L120.85 82.4421L120.703 82.3395L120.547 82.2505L118.56 85.7223ZM151.02 108.376L148.731 111.656L148.731 111.656L151.02 108.376ZM175.893 103.619L172.55 101.422L172.55 101.422L175.893 103.619ZM170.949 78.054L168.66 81.3342L168.66 81.3342L170.949 78.054ZM126.899 47.3117L129.188 44.0316L129.188 44.0316L126.899 47.3117ZM61.2908 6.50993L121.96 48.8591L126.539 42.2992L65.8698 -0.0499633L61.2908 6.50993ZM42.0351 10.1661C46.308 3.69397 54.9028 2.05088 61.2908 6.50994L65.8698 -0.0499658C55.805 -7.0756 42.1191 -4.4814 35.3588 5.75846L42.0351 10.1661ZM45.8938 30.2095C39.4398 25.7044 37.7177 16.706 42.0351 10.166L35.3587 5.75855C28.6437 15.9304 31.3159 29.7899 41.3148 36.7694L45.8938 30.2095ZM68.7849 46.1884L45.8938 30.2095L41.3147 36.7694L64.2058 52.7483L68.7849 46.1884ZM59.6838 63.0023C62.3513 58.9437 65.5171 55.4551 69.0378 52.5564L63.9529 46.3803C59.8144 49.7877 56.1084 53.8765 52.9985 58.6083L59.6838 63.0023ZM17.1372 127.736L59.6838 63.0023L52.9985 58.6083L10.4519 123.342L17.1372 127.736ZM17.0391 127.886L17.1372 127.736L10.4519 123.342L10.3538 123.492L17.0391 127.886ZM6.36804 144.122L17.0392 127.886L10.3538 123.492L-0.317308 139.728L6.36804 144.122ZM10.2582 164.209C3.79464 159.698 2.05844 150.679 6.36798 144.122L-0.317253 139.728C-7.0142 149.917 -4.32349 163.789 5.67986 170.77L10.2582 164.209ZM29.4989 160.536C25.2373 167.02 16.651 168.671 10.2583 164.209L5.67977 170.77C15.7541 177.801 29.4391 175.192 36.1841 164.93L29.4989 160.536ZM58.9417 115.739L29.4988 160.536L36.1841 164.93L65.627 120.133L58.9417 115.739ZM59.0363 115.594L58.938 115.744L65.6307 120.127L65.729 119.977L59.0363 115.594ZM82.8142 79.4166L59.04 115.589L65.7253 119.983L89.4995 83.8105L82.8142 79.4166ZM107.668 73.3538C99.1263 68.5496 88.3083 71.0573 82.8142 79.4166L89.4995 83.8105C92.6641 78.9956 98.836 77.5648 103.747 80.3267L107.668 73.3538ZM119.458 81.5607L107.997 73.5603L103.418 80.1202L114.879 88.1205L119.458 81.5607ZM120.547 82.2505C120.179 82.0399 119.816 81.8102 119.458 81.5606L114.879 88.1206C115.433 88.5069 115.998 88.8647 116.574 89.1941L120.547 82.2505ZM153.309 105.095L120.85 82.4421L116.271 89.0025L148.731 111.656L153.309 105.095ZM172.55 101.422C168.289 107.906 159.702 109.557 153.309 105.095L148.731 111.656C158.805 118.686 172.49 116.078 179.235 105.816L172.55 101.422ZM168.66 81.3342C175.124 85.8452 176.86 94.8651 172.55 101.422L179.235 105.816C185.932 95.627 183.242 81.7552 173.238 74.7738L168.66 81.3342ZM124.609 50.5919L168.66 81.3342L173.238 74.7738L129.188 44.0316L124.609 50.5919ZM122.162 48.9917C122.987 49.4961 123.803 50.0294 124.609 50.5919L129.188 44.0316C128.25 43.3769 127.299 42.7553 126.336 42.1667L122.162 48.9917Z" fill="url(#paint0_linear_40000093_32308)" mask="url(#path-1-inside-1_40000093_32308)"/>
</g>
<defs>
<linearGradient id="paint0_linear_40000093_32308" x1="2.60184" y1="99.0929" x2="133.258" y2="-10.2098" gradientUnits="userSpaceOnUse">
<stop stop-color="#004B96"/>
<stop offset="0.465" stop-color="#FEBF00"/>
<stop offset="1" stop-color="#AD1B02"/>
</linearGradient>
</defs>
</svg>
