<svg width="30" height="30" viewBox="0 0 30 30" fill="none" xmlns="http://www.w3.org/2000/svg">
<g clip-path="url(#clip0_40000024_1930)">
<path d="M6.64863 18.1293L5.60438 22.0277L1.78764 22.1084C0.646992 19.9928 0 17.5722 0 14.9999C0 12.5126 0.604922 10.1669 1.67719 8.10156H1.67801L5.07598 8.72453L6.56449 12.1021C6.25295 13.0104 6.08314 13.9854 6.08314 14.9999C6.08326 16.101 6.28271 17.156 6.64863 18.1293Z" fill="#FBBB00"/>
<path d="M29.7363 12.1978C29.9085 13.1051 29.9984 14.0422 29.9984 14.9999C29.9984 16.0738 29.8855 17.1214 29.6704 18.1318C28.9402 21.5703 27.0322 24.5728 24.3891 26.6975L24.3882 26.6967L20.1083 26.4783L19.5026 22.6969C21.2564 21.6684 22.627 20.0587 23.349 18.1318H15.3281V12.1978H29.7363Z" fill="#518EF8"/>
<path d="M24.3912 26.6967L24.3921 26.6975C21.8215 28.7637 18.5561 30 15.0014 30C9.28906 30 4.3226 26.8071 1.78906 22.1085L6.65006 18.1294C7.9168 21.5101 11.1781 23.9168 15.0014 23.9168C16.6448 23.9168 18.1844 23.4725 19.5055 22.697L24.3912 26.6967Z" fill="#28B446"/>
<path d="M24.573 3.45328L19.7137 7.43156C18.3464 6.57691 16.7302 6.0832 14.9986 6.0832C11.0887 6.0832 7.76643 8.60021 6.56315 12.1022L1.6766 8.10164H1.67578C4.17223 3.28846 9.20133 0 14.9986 0C18.6381 0 21.9752 1.29645 24.573 3.45328Z" fill="#F14336"/>
</g>
<defs>
<clipPath id="clip0_40000024_1930">
<rect width="30" height="30" fill="white"/>
</clipPath>
</defs>
</svg>
