<svg width="484" height="625" viewBox="0 0 484 625" fill="none" xmlns="http://www.w3.org/2000/svg">
<g opacity="0.05">
<path d="M428.122 350.311L428.957 350.861L428.122 350.311L360.899 452.376L360.825 452.488L361.66 453.038L360.825 452.488L306.473 535.01C271.164 588.62 199.764 602.282 146.982 565.522L46.5669 495.588C28.2421 482.826 23.3261 457.382 35.5833 438.771C47.8295 420.179 72.5871 415.44 90.8955 428.191L191.309 498.125C207.475 509.384 229.36 505.199 240.178 488.775L361.826 304.077C374.072 285.483 398.829 280.745 417.138 293.496C435.463 306.258 440.379 331.702 428.122 350.311Z" stroke="white" stroke-width="2"/>
<mask id="path-2-inside-1_40000093_31629" fill="white">
<path fill-rule="evenodd" clip-rule="evenodd" d="M283.298 103.914L144.984 7.36573C126.225 -5.72924 100.82 -0.897837 88.2398 18.1574C75.6605 37.2124 80.671 63.2753 99.4307 76.3701L151.635 112.811C142.903 120.001 135.068 128.64 128.481 138.662L31.4574 286.283L31.2337 286.623L6.89911 323.649C-5.65061 342.742 -0.603002 368.843 18.1727 381.946C36.9486 395.05 62.3427 390.193 74.8924 371.1L142.035 268.943L142.259 268.601L196.474 186.113C206.341 171.101 225.696 166.607 241.031 175.213L267.189 193.472C268.237 194.204 269.305 194.879 270.391 195.5L344.39 247.142C363.165 260.245 388.56 255.389 401.109 236.295C413.659 217.201 408.612 191.1 389.835 177.996L289.382 107.891C287.38 106.493 285.351 105.168 283.298 103.914Z"/>
</mask>
<path d="M144.984 7.36573L146.129 5.72575V5.72575L144.984 7.36573ZM283.298 103.914L282.153 105.554L282.203 105.589L282.255 105.621L283.298 103.914ZM88.2398 18.1574L86.5708 17.0555L86.5707 17.0555L88.2398 18.1574ZM99.4307 76.3701L100.575 74.7301L100.575 74.7301L99.4307 76.3701ZM151.635 112.811L152.906 114.355L154.941 112.679L152.78 111.171L151.635 112.811ZM128.481 138.662L126.81 137.563L128.481 138.662ZM31.4574 286.283L29.7861 285.184L29.7861 285.184L31.4574 286.283ZM31.2337 286.623L32.9051 287.722L32.9051 287.722L31.2337 286.623ZM6.89911 323.649L8.57041 324.747L8.57044 324.747L6.89911 323.649ZM18.1727 381.946L19.3173 380.306L19.3173 380.306L18.1727 381.946ZM74.8924 371.1L76.5637 372.198L76.5637 372.198L74.8924 371.1ZM142.035 268.943L143.706 270.042L143.708 270.039L142.035 268.943ZM142.259 268.601L140.587 267.502L140.586 267.505L142.259 268.601ZM196.474 186.113L198.145 187.212L196.474 186.113ZM241.031 175.213L242.176 173.573L242.095 173.517L242.01 173.469L241.031 175.213ZM267.189 193.472L266.044 195.112L266.044 195.112L267.189 193.472ZM270.391 195.5L271.536 193.86L271.462 193.808L271.383 193.763L270.391 195.5ZM344.39 247.142L343.245 248.782V248.782L344.39 247.142ZM401.109 236.295L399.438 235.196L399.438 235.196L401.109 236.295ZM389.835 177.996L388.691 179.636L388.691 179.636L389.835 177.996ZM289.382 107.891L290.527 106.251V106.251L289.382 107.891ZM143.84 9.0057L282.153 105.554L284.443 102.274L146.129 5.72575L143.84 9.0057ZM89.9089 19.2593C101.867 1.146 125.999 -3.44762 143.84 9.0057L146.129 5.72575C126.45 -8.01086 99.7728 -2.94168 86.5708 17.0555L89.9089 19.2593ZM100.575 74.7301C82.702 62.2539 77.929 37.4063 89.9089 19.2592L86.5707 17.0555C73.392 37.0185 78.64 64.2967 98.2859 78.0101L100.575 74.7301ZM152.78 111.171L100.575 74.7301L98.2859 78.01L150.49 114.451L152.78 111.171ZM130.153 139.76C136.629 129.907 144.328 121.417 152.906 114.355L150.364 111.267C141.477 118.584 133.508 127.373 126.81 137.563L130.153 139.76ZM33.1288 287.381L130.153 139.76L126.81 137.563L29.7861 285.184L33.1288 287.381ZM32.9051 287.722L33.1288 287.381L29.7861 285.184L29.5624 285.525L32.9051 287.722ZM8.57044 324.747L32.9051 287.722L29.5624 285.525L5.22777 322.55L8.57044 324.747ZM19.3173 380.306C1.42653 367.821 -3.38245 342.933 8.57041 324.747L5.2278 322.55C-7.91878 342.552 -2.63253 369.866 17.0281 383.587L19.3173 380.306ZM73.2211 370.001C61.2922 388.15 37.1729 392.768 19.3173 380.306L17.0281 383.587C36.7244 397.333 63.3931 392.237 76.5637 372.198L73.2211 370.001ZM140.363 267.845L73.2211 370.001L76.5637 372.198L143.706 270.042L140.363 267.845ZM140.586 267.505L140.361 267.848L143.708 270.039L143.932 269.696L140.586 267.505ZM194.803 185.015L140.587 267.502L143.93 269.699L198.145 187.212L194.803 185.015ZM242.01 173.469C225.767 164.353 205.251 169.117 194.803 185.015L198.145 187.212C207.43 173.085 225.625 168.86 240.052 176.957L242.01 173.469ZM268.333 191.832L242.176 173.573L239.886 176.853L266.044 195.112L268.333 191.832ZM271.383 193.763C270.35 193.173 269.332 192.529 268.333 191.832L266.044 195.112C267.141 195.878 268.261 196.586 269.4 197.236L271.383 193.763ZM345.534 245.502L271.536 193.86L269.247 197.14L343.245 248.782L345.534 245.502ZM399.438 235.196C387.509 253.346 363.39 257.963 345.534 245.502L343.245 248.782C362.941 262.528 389.61 257.432 402.781 237.393L399.438 235.196ZM388.691 179.636C406.583 192.122 411.391 217.011 399.438 235.196L402.781 237.393C415.927 217.392 410.642 190.077 390.98 176.356L388.691 179.636ZM288.237 109.531L388.691 179.636L390.98 176.356L290.527 106.251L288.237 109.531ZM282.255 105.621C284.273 106.853 286.268 108.157 288.237 109.531L290.527 106.251C288.491 104.83 286.428 103.482 284.341 102.207L282.255 105.621Z" fill="white" mask="url(#path-2-inside-1_40000093_31629)"/>
</g>
</svg>
