<svg width="30" height="27" viewBox="0 0 30 27" fill="none" xmlns="http://www.w3.org/2000/svg">
<path d="M29.9938 23.8769C29.9897 23.7923 29.965 23.7045 29.9053 23.6237L26.3918 18.8827V6.51829C26.3918 5.38392 25.4688 4.46098 24.334 4.46098H23.4246V1.87904C23.4246 1.03167 22.7352 0.342285 21.8879 0.342285H16.1065C14.5141 0.342285 13.2186 1.63777 13.2186 3.23023V4.46098H5.99473C4.86036 4.46098 3.93741 5.38392 3.93741 6.51829V18.8827L0.423898 23.6237C0.352438 23.7203 0.320041 23.8882 0.329835 24.0975C0.37307 25.0171 1.23151 26.7365 3.17332 26.7365H27.1595C28.8083 26.7366 30.0603 25.322 29.9938 23.8769ZM1.71799 23.4345L4.63451 19.4995H25.6947L28.6113 23.4345H1.71799ZM7.24113 18.5725C7.46884 16.8576 8.93535 15.5288 10.7091 15.5288C12.4853 15.5288 13.9539 16.8575 14.182 18.5725H7.24113ZM14.1456 3.23017C14.1456 2.14877 15.0251 1.26929 16.1065 1.26929H21.8879C22.2242 1.26929 22.4976 1.54267 22.4976 1.87904V4.53162C22.4976 5.61302 21.6181 6.4925 20.5367 6.4925H15.5372C15.3715 6.4925 15.2181 6.58123 15.1352 6.7252L14.1457 8.44573V3.23017H14.1456ZM4.86442 6.51829C4.86442 5.89498 5.37142 5.38804 5.99467 5.38804H13.2186V8.62679C13.2186 9.52586 14.4109 9.84421 14.859 9.06493L15.8051 7.41951H20.5367C21.8311 7.41951 22.9292 6.56356 23.295 5.38798H24.3341C24.9574 5.38798 25.4648 5.89498 25.4648 6.51824V18.5724H15.1187C14.8862 16.3444 12.9978 14.6017 10.7091 14.6017C8.42337 14.6017 6.53668 16.3444 6.30445 18.5724H4.86442V6.51829ZM27.1595 25.8095H3.17332C2.27953 25.8095 1.52738 25.1929 1.31943 24.3633H29.0134C28.8055 25.1929 28.0533 25.8095 27.1595 25.8095Z" fill="white"/>
<path d="M20.3678 21.0038H9.96586C9.70963 21.0038 9.50233 21.2111 9.50233 21.4673C9.50233 21.7235 9.70963 21.9309 9.96586 21.9309H20.3679C20.6241 21.9309 20.8314 21.7235 20.8314 21.4673C20.8314 21.2111 20.6241 21.0038 20.3678 21.0038ZM10.7136 13.6151C11.7963 13.6151 12.6772 12.7342 12.6772 11.6515V10.5244C12.6772 9.44166 11.7963 8.56079 10.7136 8.56079C9.63087 8.56079 8.75 9.44166 8.75 10.5244V11.6515C8.75 12.7342 9.63087 13.6151 10.7136 13.6151ZM9.67706 10.5244C9.67706 9.95271 10.1419 9.48779 10.7137 9.48779C11.2853 9.48779 11.7503 9.95266 11.7503 10.5244V11.6515C11.7503 12.2232 11.2854 12.6881 10.7137 12.6881C10.142 12.6881 9.67706 12.2233 9.67706 11.6515V10.5244ZM16.0278 3.39825H20.6195C20.8758 3.39825 21.0831 3.19095 21.0831 2.93472C21.0831 2.6785 20.8758 2.47119 20.6195 2.47119H16.0278C15.7716 2.47119 15.5643 2.6785 15.5643 2.93472C15.5643 3.19095 15.7716 3.39825 16.0278 3.39825ZM16.0278 5.28987H19.4327C19.6889 5.28987 19.8962 5.08257 19.8962 4.82634C19.8962 4.57012 19.6889 4.36281 19.4327 4.36281H16.0278C15.7716 4.36281 15.5643 4.57012 15.5643 4.82634C15.5643 5.08257 15.7716 5.28987 16.0278 5.28987Z" fill="white"/>
</svg>
